<?xml version="1.0" encoding="utf-8"?>
<!-- Generator: Adobe Illustrator 27.3.1, SVG Export Plug-In . SVG Version: 6.00 Build 0)  -->
<svg version="1.1" id="Layer_1" xmlns="http://www.w3.org/2000/svg" xmlns:xlink="http://www.w3.org/1999/xlink" x="0px" y="0px"
	 viewBox="0 0 1920 1080" style="enable-background:new 0 0 1920 1080;" xml:space="preserve">
<style type="text/css">
	.st0{fill:url(#SVGID_1_);}
	.st1{opacity:5.000000e-02;}
	.st2{fill-rule:evenodd;clip-rule:evenodd;fill:#7CA9C7;}
	.st3{opacity:0.5;}
	.st4{fill:none;stroke:#15B5B5;stroke-width:2.1077;stroke-miterlimit:10;}
	.st5{fill:none;stroke:#174972;stroke-width:1.9487;stroke-miterlimit:10;}
	.st6{fill:url(#SVGID_00000047764914133119896420000015983204883317747841_);}
	.st7{fill:url(#SVGID_00000080172777107568124160000006546196283571032209_);}
	.st8{fill:url(#SVGID_00000020361396379773313040000000403960656919385480_);}
	.st9{opacity:0.5;fill:url(#SVGID_00000114756680520829547170000011067856662912397697_);}
	.st10{opacity:0.5;fill:url(#SVGID_00000019649486565332639780000015698307810551909803_);}
	.st11{fill:url(#SVGID_00000051355323896636952480000011933207506756797106_);}
	.st12{opacity:0.7;fill:url(#SVGID_00000044866995414254406700000007646004622619516048_);}
	.st13{fill:url(#SVGID_00000074402865977422574720000005850362629410284433_);}
</style>
<rect width="1920" height="1080"/>
<linearGradient id="SVGID_1_" gradientUnits="userSpaceOnUse" x1="960" y1="-9.094947e-13" x2="960" y2="1080">
	<stop  offset="0" style="stop-color:#0E131B"/>
	<stop  offset="0.2624" style="stop-color:#243144"/>
	<stop  offset="0.4217" style="stop-color:#212D3F"/>
	<stop  offset="0.6338" style="stop-color:#151B26"/>
	<stop  offset="1" style="stop-color:#141A25"/>
</linearGradient>
<rect class="st0" width="1920" height="1080"/>
<g class="st1">
	<g>
		<path class="st2" d="M197.9-2.2l-479.6,775.7h140.5L338.3-2.2H197.9z M433.3-2.2L-46.3,773.6H94.1L573.7-2.2H433.3z M668.7-2.2
			L189.1,773.6h140.5L809.1-2.2H668.7z M904-2.2L424.5,773.6h140.5L1044.5-2.2H904z M1139.4-2.2L659.8,773.6h140.5L1279.9-2.2
			H1139.4z M1374.8-2.2L895.2,773.6h140.5L1515.3-2.2H1374.8z M1610.2-2.2l-479.6,775.7h140.5L1750.6-2.2H1610.2z M1845.6-2.2
			L1366,773.6h140.5L1986-2.2H1845.6z M2080.9-2.2l-479.6,775.7h140.5L2221.4-2.2H2080.9z"/>
	</g>
</g>
<g class="st1">
	<g>
		<path class="st2" d="M1741.8-2.2h-140.5l479.6,775.7h140.5L1741.8-2.2z M1366-2.2l479.6,775.7H1986L1506.4-2.2H1366z M1130.6-2.2
			l479.6,775.7h140.5L1271.1-2.2H1130.6z M895.2-2.2l479.6,775.7h140.5L1035.7-2.2H895.2z M659.8-2.2l479.6,775.7h140.5L800.3-2.2
			H659.8z M424.5-2.2L904,773.6h140.5L564.9-2.2H424.5z M189.1-2.2l479.6,775.7h140.5L329.5-2.2H189.1z M-46.3-2.2l479.6,775.7
			h140.5L94.1-2.2H-46.3z M-281.7-2.2l479.6,775.7h140.5L-141.2-2.2H-281.7z"/>
	</g>
</g>
<g class="st3">
	<g>
		<path class="st4" d="M-45,661c0-41.1,588.6-74.4,1005-74.4s1005,33.3,1005,74.4"/>
		<path class="st4" d="M-45,575.1c0-41.1,588.6-39,1005-39s1005-2.1,1005,39"/>
		<path class="st4" d="M-45,489.2c0-41.1,588.6-3.6,1005-3.6s1005-37.5,1005,3.6"/>
		<path class="st4" d="M-45,403.4c0-41.1,588.6,31.8,1005,31.8s1005-72.9,1005-31.8"/>
		<path class="st4" d="M-45,317.5c0-41.1,588.6,67.2,1005,67.2s1005-108.3,1005-67.2"/>
		<path class="st4" d="M-45,231.7c0-41.1,588.6,102.6,1005,102.6s1005-143.7,1005-102.6"/>
		<path class="st4" d="M-45,145.8c0-41.1,588.6,138,1005,138s1005-179.1,1005-138"/>
	</g>
	<g>
		<path class="st5" d="M-45,623.8c0-35.1,588.6-63.6,1005-63.6s1005,28.5,1005,63.6"/>
		<path class="st5" d="M-45,550.4c0-35.1,588.6-33.3,1005-33.3s1005-1.8,1005,33.3"/>
		<path class="st5" d="M-45,477c0-35.1,588.6-3.1,1005-3.1s1005-32,1005,3.1"/>
		<path class="st5" d="M-45,403.6c0-35.1,588.6,27.2,1005,27.2s1005-62.3,1005-27.2"/>
		<path class="st5" d="M-45,330.2c0-35.1,588.6,57.4,1005,57.4s1005-92.6,1005-57.4"/>
		<path class="st5" d="M-45,256.8c0-35.1,588.6,87.7,1005,87.7s1005-122.8,1005-87.7"/>
		<path class="st5" d="M-45,183.4c0-35.1,588.6,118,1005,118s1005-153.1,1005-118"/>
	</g>
</g>
<ellipse cx="942.6" cy="874.2" rx="1130.8" ry="252.4"/>
<linearGradient id="SVGID_00000057846533209895685850000000655711224868705926_" gradientUnits="userSpaceOnUse" x1="960" y1="1080" x2="960" y2="431.7668">
	<stop  offset="0" style="stop-color:#000000"/>
	<stop  offset="1" style="stop-color:#000000;stop-opacity:0"/>
</linearGradient>
<rect y="431.8" style="fill:url(#SVGID_00000057846533209895685850000000655711224868705926_);" width="1920" height="648.2"/>
<g>
	
		<linearGradient id="SVGID_00000072269917024819085130000011603805444013569187_" gradientUnits="userSpaceOnUse" x1="1112.0789" y1="3827.4094" x2="1112.0789" y2="2955.9097" gradientTransform="matrix(6.123234e-17 1 -1 6.123234e-17 3637.4082 -572.0789)">
		<stop  offset="0" style="stop-color:#000000"/>
		<stop  offset="1" style="stop-color:#000000;stop-opacity:0"/>
	</linearGradient>
	<polygon style="fill:url(#SVGID_00000072269917024819085130000011603805444013569187_);" points="-190,1080 -190,0 681.5,0 
		681.5,1080 	"/>
	
		<linearGradient id="SVGID_00000163034776708717344340000000914403359696043448_" gradientUnits="userSpaceOnUse" x1="1112.0789" y1="243.0076" x2="1112.0789" y2="-628.4922" gradientTransform="matrix(-6.123234e-17 1 1 6.123234e-17 1866.9937 -572.0789)">
		<stop  offset="0" style="stop-color:#000000"/>
		<stop  offset="1" style="stop-color:#000000;stop-opacity:0"/>
	</linearGradient>
	<polygon style="fill:url(#SVGID_00000163034776708717344340000000914403359696043448_);" points="2110,1080 2110,0 1238.5,0 
		1238.5,1080 	"/>
</g>
<linearGradient id="SVGID_00000137124605417498662450000005986212495818975146_" gradientUnits="userSpaceOnUse" x1="960" y1="-1.068713e-05" x2="960" y2="628.1787">
	<stop  offset="0" style="stop-color:#1A3E6A"/>
	<stop  offset="0.2869" style="stop-color:#1A416C;stop-opacity:0.7131"/>
	<stop  offset="0.4879" style="stop-color:#194A73;stop-opacity:0.5121"/>
	<stop  offset="0.6625" style="stop-color:#19597F;stop-opacity:0.3375"/>
	<stop  offset="0.8222" style="stop-color:#186F8F;stop-opacity:0.1778"/>
	<stop  offset="0.9704" style="stop-color:#168BA4;stop-opacity:2.959669e-02"/>
	<stop  offset="1" style="stop-color:#1692A9;stop-opacity:0"/>
</linearGradient>
<polygon style="opacity:0.5;fill:url(#SVGID_00000137124605417498662450000005986212495818975146_);" points="1205.2,0 714.8,0 
	498.6,628.2 1421.4,628.2 "/>
<linearGradient id="SVGID_00000015318339057000203480000011639448099191560864_" gradientUnits="userSpaceOnUse" x1="960" y1="-1.068713e-05" x2="960" y2="628.1787">
	<stop  offset="0" style="stop-color:#1692A9"/>
	<stop  offset="0.1413" style="stop-color:#1692A9;stop-opacity:0.8587"/>
	<stop  offset="1" style="stop-color:#1692A9;stop-opacity:0"/>
</linearGradient>
<polygon style="opacity:0.5;fill:url(#SVGID_00000015318339057000203480000011639448099191560864_);" points="1130.6,0 789.4,0 
	498.6,628.2 1421.4,628.2 "/>
<linearGradient id="SVGID_00000147199104586946165660000009038850227601706671_" gradientUnits="userSpaceOnUse" x1="960" y1="0" x2="960" y2="628.1787">
	<stop  offset="0" style="stop-color:#1692A9"/>
	<stop  offset="0.1433" style="stop-color:#1692A9;stop-opacity:0.8567"/>
	<stop  offset="1" style="stop-color:#1692A9;stop-opacity:0"/>
</linearGradient>
<polygon style="fill:url(#SVGID_00000147199104586946165660000009038850227601706671_);" points="1025.3,0 894.7,0 498.6,628.2 
	1421.4,628.2 "/>
<linearGradient id="SVGID_00000169523435249060548600000005427161341574641313_" gradientUnits="userSpaceOnUse" x1="992.6545" y1="-1.068713e-05" x2="992.6545" y2="628.1787">
	<stop  offset="0" style="stop-color:#1692A9"/>
	<stop  offset="0.1433" style="stop-color:#1692A9;stop-opacity:0.8567"/>
	<stop  offset="1" style="stop-color:#1692A9;stop-opacity:0"/>
</linearGradient>
<polygon style="opacity:0.7;fill:url(#SVGID_00000169523435249060548600000005427161341574641313_);" points="1486.7,0 1356.1,0 
	498.6,628.2 1421.4,628.2 "/>
<linearGradient id="SVGID_00000085971238557261227630000012735007207493404550_" gradientUnits="userSpaceOnUse" x1="1066.7644" y1="-1.068713e-05" x2="1066.7644" y2="628.1787" gradientTransform="matrix(-1 0 0 1 1985.3091 0)">
	<stop  offset="0" style="stop-color:#14394F"/>
	<stop  offset="7.351220e-03" style="stop-color:#143C52;stop-opacity:0.9926"/>
	<stop  offset="8.212471e-02" style="stop-color:#15576D;stop-opacity:0.9179"/>
	<stop  offset="0.1665" style="stop-color:#156C83;stop-opacity:0.8335"/>
	<stop  offset="0.2657" style="stop-color:#167D94;stop-opacity:0.7343"/>
	<stop  offset="0.3874" style="stop-color:#1689A0;stop-opacity:0.6126"/>
	<stop  offset="0.5559" style="stop-color:#1690A7;stop-opacity:0.4441"/>
	<stop  offset="1" style="stop-color:#1692A9;stop-opacity:0"/>
</linearGradient>
<polygon style="fill:url(#SVGID_00000085971238557261227630000012735007207493404550_);" points="424.5,0 555.1,0 1412.6,628.2 
	489.8,628.2 "/>
</svg>
