<?xml version="1.0" encoding="utf-8"?>
<!-- Generator: Adobe Illustrator 27.2.0, SVG Export Plug-In . SVG Version: 6.00 Build 0)  -->
<svg version="1.1" id="Layer_1" xmlns="http://www.w3.org/2000/svg" xmlns:xlink="http://www.w3.org/1999/xlink" x="0px" y="0px"
	 viewBox="0 0 182.3 205.6" style="enable-background:new 0 0 182.3 205.6;" xml:space="preserve">
<style type="text/css">
	.st0{fill:#29374D;}
	.st1{clip-path:url(#SVGID_00000064338866436926431300000001758164273777420976_);fill:#BA3900;}
	.st2{clip-path:url(#SVGID_00000064338866436926431300000001758164273777420976_);fill:#FFFFFF;}
	.st3{clip-path:url(#SVGID_00000064338866436926431300000001758164273777420976_);fill:#1AB9FF;}
	.st4{fill:#8CBFE0;}
</style>
<g>
	<path class="st0" d="M181.1,145.5V60.1c0-5.7-3-10.9-8-13.8l-74-42.7c-4.9-2.8-11-2.8-15.9,0l-74,42.7c-4.9,2.8-8,8.1-8,13.8v85.4
		c0,5.7,3,10.9,8,13.8l74,42.7c4.9,2.8,11,2.8,15.9,0l74-42.7C178.1,156.4,181.1,151.2,181.1,145.5z"/>
	<g>
		<defs>
			<path id="SVGID_1_" d="M103.4,157.6c0.1,0.2,0.3,0.4,0.4,0.5c-0.1,0.2-0.1,0.6-0.2,0.7c-4.6,5.7-9.7,10.2-15.2,14.9
				c-0.4,0.4-0.8,0.7-1.2,1.1c-0.1-0.1-0.2-0.3-0.3-0.4c0.4-1.2,1.1-2.2,1.6-3.4c3.1-4.8,9-4.3,11.5-10.3c0.3-0.3,0.5-0.7,0.8-1
				C101.7,159,102.6,158.3,103.4,157.6z M83.4,43.5c4.4-6.6,11.9-7.6,15.5-14.4c-6.3,4.5-12.5,9.2-17.8,15.3
				C82,44.3,82.8,44.1,83.4,43.5z M89.3,179.4c5.1-3.1,10.2-10.4,13.8-15c-1.1,0.6-2.5,1.3-3.9,2.1c-0.9,0.4-0.2,1.8-0.6,2.4
				c-1.3,1.7-2.7,3.4-4.2,4.9c-2,2-4,3.9-6,5.9C88.8,179.7,89,179.6,89.3,179.4z M82.4,39.2c5.7-3.8,9.7-10.2,15.4-14.1
				c-6.2,3.2-26,20.5-30.8,25.7C67.1,50.8,82.3,39.3,82.4,39.2z M74.3,152.9c0.4-1-1.3-3.4-0.1-3.6c-0.3-0.3-0.5-0.5-0.7-0.7
				c-0.6,2.8-2,4.4-4.1,5.2C71.5,157,72.7,154.3,74.3,152.9z M84.3,168.7c-0.6,1.1-1,2.3-1.6,3.2c-0.7,0.9-1.6,1.4-2.5,2.2
				c0.5,0.4,0.9,0.9,1.2,1C85.2,175.8,85.4,171.7,84.3,168.7z M150.9,95.9c-1.1,0.6-2.2,1.2-3.3,1.8c0.4,0.8,0.6,1.4,0.8,1.6
				c0.4,0.3,0.8,0.7,1.1,0.7c1.1-0.9,2.3-0.7,3.9-1C152.3,97.6,151.5,96.7,150.9,95.9z M161.2,116.1c-0.9,0.8-2.7,0-2.7,2.4
				c0.4,0.6,0.9,1.3,1.4,2c0-0.2,0-0.4-0.1-0.6c1.3-0.3,2.6-0.6,4.1-0.9c-0.6-0.8-1-1.4-1.4-1.8C162.1,116.7,161.4,116,161.2,116.1z
				 M103.4,32.3c-0.2,0.1-0.4,0.3-0.7,0.5c0.6,0.2,1,0.3,1.6,0.4c-0.4,0.6-0.6,1-0.9,1.4c0.1,0.1,0.2,0.3,0.3,0.4
				c0.6-0.4,1.2-0.8,1.9-1.3c-0.1,0.6-0.2,1-0.2,1.4c0.1,0.1,0.2,0.3,0.3,0.4c0.7-1.6,1.4-3.1,2.1-4.7
				C106.2,29.9,104.9,31.8,103.4,32.3z M29.4,100.2c0.4-0.1,0.6-0.6,1.1-0.5c1.7,0.3,2.7-0.6,3.7-1.7c-0.3-0.7-0.6-1.3-0.8-1.7
				c-1.5,0.5-2.8,1-4.3,1.5c0.3,0.5,0.5,0.8,0.9,1.5c-0.6-0.1-1-0.2-1.4-0.2C28.6,99.8,28.9,100.3,29.4,100.2z M80.4,170.9
				c0.3-0.9,1.4-0.9,2.1-1.3c-2.9-1.8-5-2.1-5,1.9c0.2,0.1,0.6,0.3,0.9,0.2C79.2,171.6,80.1,172,80.4,170.9z M105.3,28.6
				c-3.5-1.6-4.8,1.5-4.4,4.7C102.3,31.8,103.7,30.2,105.3,28.6z M23,84.1c1.1-0.3,2.1-1,3.1-1.5c-0.1-0.3-0.2-0.7-0.4-1
				c-0.4-0.3-0.9-0.8-1.2-0.8c-0.5,0-0.7,0.5-1.2,0.6c-0.8,0.3-1.6,0.4-2.5,0.6c0.1,0.2,0.1,0.4,0.2,0.6
				C21.7,83.2,22.6,84.2,23,84.1z M31.5,109.7c-2.2,0.7-4.4,1.3-6.6,1.9c0.1,0.2,0.1,0.3,0.2,0.5c1.6-0.4,3.1-0.8,4.7-1.3
				c0.1,0.2,0.2,0.5,0.4,0.7c-1.1,1.1-2.1,2.2-3.2,3.3C28.3,115.7,31.2,112.3,31.5,109.7z M127.7,116.9c1.7-0.2,3.6-0.1,5.4-0.2
				c-0.1-0.2-0.1-0.3-0.2-0.5c-3.3-1.1-5.3,0.5-7.9,0.6c0.1,1,0.1,1.8,0.2,2.5c0.6-0.2,1.3-0.4,2-0.5c-0.1-0.2-0.1-0.3-0.2-0.5
				c-0.2,0-0.4-0.1-0.6-0.1c-0.1-0.1-0.1-0.2-0.2-0.4C126.7,117.4,127.1,117,127.7,116.9z M134.7,139.6L134.7,139.6L134.7,139.6
				L134.7,139.6C134.7,139.6,134.8,139.6,134.7,139.6C134.8,139.6,134.7,139.6,134.7,139.6C134.7,139.6,134.7,139.6,134.7,139.6
				L134.7,139.6C134.7,139.6,134.7,139.6,134.7,139.6C134.7,139.6,134.7,139.6,134.7,139.6L134.7,139.6z M137.7,138.4
				c-0.2-0.1-0.5-0.2-0.9-0.5c0.4-0.4,0.6-0.9,1-0.9c1.9-0.2,3.7,0.4,5.5-0.4c-1-0.8-7.8-0.2-7.9,0.6c0.2,0.4,0.4,0.8,0.6,1.3
				c-0.5,0.4-0.9,0.7-1.3,1c1-0.3,2.1-0.5,3.1-0.8C137.8,138.7,137.8,138.5,137.7,138.4z M105.2,166.8c-2.8,3.4-5.2,6.5-7.9,9.8
				C100.6,174.1,103.1,171.3,105.2,166.8z M139.4,108.7c3.5-1.6,7-3.1,10.5-4.7c-0.1-0.1-0.1-0.3-0.2-0.4c-3.5,1.5-7.1,3-10.6,4.5
				C139.2,108.3,139.3,108.5,139.4,108.7z M149.8,128.2c0.1,0.2,0.2,0.4,0.3,0.6c3.5-1.6,7-3.1,10.5-4.7c-0.1-0.1-0.2-0.2-0.2-0.4
				C156.9,125.2,153.3,126.7,149.8,128.2z M89.1,28.6c-0.1-0.1-0.2-0.3-0.3-0.4c-2.6,2.5-5.2,5-7.7,7.6c0.1,0.2,0.2,0.3,0.3,0.5
				C84,33.7,86.6,31.2,89.1,28.6z M137.2,50.8L137.2,50.8L137.2,50.8C137.2,50.8,137.2,50.8,137.2,50.8
				C137.2,50.8,137.2,50.8,137.2,50.8C137.2,50.8,137.2,50.8,137.2,50.8c0.1-0.9,0.2-1.7,0.4-2.9c-1.6-0.5-2.8-0.9-4.1-1.3
				c0.6,1.2,1.1,2.5,1.5,1.3c0.2-0.7,0.9-0.2,1.7,0.9c-0.4,0.4-0.7,0.8-1.2,1.4C136.3,50.5,136.8,50.7,137.2,50.8
				C137.2,50.8,137.2,50.8,137.2,50.8C137.2,50.8,137.2,50.8,137.2,50.8C137.2,50.8,137.2,50.8,137.2,50.8z M71.4,162.4
				c-1.5,1.9-2.9,3.8-4.3,5.5C68.1,168.7,71.1,165.3,71.4,162.4z M34.6,72.5C31.3,74.2,28,76,25,77.5c3.1-1.4,6.5-2.9,9.9-4.4
				C34.8,72.9,34.7,72.7,34.6,72.5z M161.4,103.6c1.8-0.5,3.6-1,5.4-1.5c-0.1-0.2-0.2-0.4-0.3-0.6c-1.8,0.5-3.7,1-5.5,1.4
				C161.2,103.2,161.3,103.4,161.4,103.6z M26.5,108.4c-1.2-0.6-1.2-0.5-1.8-0.2c-0.3,0.1-0.8,0-1.2,0c-0.1-0.1-0.1-0.3-0.2-0.4
				c0.2-0.2,0.4-0.5,0.6-0.7c0,0,0-0.1-0.1-0.1c-0.6,0.3-1.1,0.6-1.6,0.9C24.4,110.3,25.2,108.6,26.5,108.4z M92,180.4
				C92,180.4,92.1,180.5,92,180.4L92,180.4C92.1,180.4,92,180.4,92,180.4z M91.4,180c-0.9,1-1.8,2.1-2.6,3.2
				c0.1,0.2,0.3,0.4,0.4,0.6c1-1.1,1.9-2.2,2.9-3.3C91.8,180.3,91.5,180,91.4,180z M110.4,29.7c-0.1-0.2-0.2-0.3-0.3-0.5
				c-0.9,1.1-1.7,2.2-2.6,3.4C109.4,33.1,109.4,30.7,110.4,29.7z M47.1,64.9C47.1,64.9,47.2,64.9,47.1,64.9
				C47.2,64.9,47.2,64.9,47.1,64.9C47.2,64.9,47.2,64.9,47.1,64.9C47.2,64.9,47.2,64.9,47.1,64.9C47.2,64.9,47.1,64.9,47.1,64.9z
				 M41.5,64.6c0.1,0.2-3.7,1.1-3.6,1.3c1.6-0.2,1.3,2.3,8.9-0.3c-2.9,1-3.1-1.7-4.7-1.5C41.8,64.1,41.7,64.4,41.5,64.6z M164.8,122
				c-1.2,0.4-2.4,0.9-3.6,1.3C163.2,124.6,163.8,122.8,164.8,122z M34.6,90.9c1.2-0.4,2.4-0.9,3.5-1.3
				C36.1,88.5,35.4,89.9,34.6,90.9z M93.8,177.5c-0.2,0.3-0.4,0.6-0.5,0.9c-0.4,0.7-0.8,1.4-1.2,2.1c0.1,0.3,0.2,0.7,0.3,1
				c0.1,0.1,0.2,0.2,0.3,0.3c0.5-1.3,1-2.5,1.5-3.8C94,177.8,93.9,177.6,93.8,177.5z M92.1,180.5C92.1,180.5,92.1,180.5,92.1,180.5
				C92.1,180.4,92.1,180.4,92.1,180.5C92.1,180.4,92.1,180.5,92.1,180.5z M21.8,95c-0.1-0.2-0.2-0.3-0.2-0.5
				c-1.6,0.5-3.2,1.1-4.8,1.6c0.1,0.1,0.1,0.3,0.2,0.4C18.6,96.1,20.2,95.6,21.8,95z M154.3,101.8c-1.2,0.5-2.5,0.9-3.7,1.4
				C152.6,104.4,153.2,102.6,154.3,101.8z M97.5,21.8c-0.9,1-1.7,1.9-2.6,2.9C96.6,25,96.9,23.1,97.5,21.8z M155.6,72.5
				c1.1-0.1,2.2-0.1,3.4-0.2C158.1,71.1,157.3,71.2,155.6,72.5z M165.6,91.4c1.3-0.1,2.3-0.1,3.4-0.2
				C168.2,90,166.7,90.1,165.6,91.4z M22.9,101.5c-1.1,0.1-2.1,0.1-3.2,0.2C20.5,102.8,21.5,102.8,22.9,101.5z M27,113.5
				c-1.1,0.2-2.1,0.3-3.2,0.5c0.1,0.2,0.2,0.5,0.3,0.7c1-0.3,2-0.5,3.1-0.8C27.1,113.7,27.1,113.6,27,113.5z M23.3,77.7
				c-0.9,0.5-1.9,1-2.8,1.5c0.1,0.1,0.1,0.3,0.2,0.4c0.9-0.5,1.9-1,2.8-1.5C23.5,77.9,23.4,77.8,23.3,77.7z M94.6,24.4
				c-0.1-0.2-0.3-0.4-0.4-0.6c-0.6,1.1-1.1,2.1-1.7,3.2c0.1,0.2,0.2,0.3,0.3,0.5C93.4,26.4,94,25.4,94.6,24.4z M82.3,151.1
				c-0.6,0.7-1.2,1.3-1.9,2c0.1,0.2,0.3,0.4,0.4,0.6c0.6-0.7,1.2-1.4,1.8-2.1C82.6,151.5,82.5,151.3,82.3,151.1z M21.3,120.7
				c1.3,0.3,2-0.8,3-1.1c-1.1,0.2-2.2,0.3-3.2,0.5C21.1,120.3,21.2,120.5,21.3,120.7z M150.3,78.3c1.1-0.2,2.1-0.3,3.2-0.5
				c-0.1-0.2-0.2-0.5-0.3-0.7c-1,0.3-2,0.6-3,0.9C150.2,78.1,150.3,78.2,150.3,78.3z M107.1,41.6c0.5-0.4,1.1-0.8,1.6-1.3
				c-0.1-0.2-0.3-0.5-0.4-0.7c-0.5,0.5-1.1,0.9-1.6,1.4C106.9,41.2,107,41.4,107.1,41.6z M16.3,105c-1,0.2-2,0.3-3,0.5
				c0.1,0.2,0.1,0.4,0.2,0.6C14.7,106.2,15.5,105.6,16.3,105z M94.1,179c0.1,0.3,0.3,0.5,0.4,0.8c0.5-0.4,1-0.8,1.5-1.3
				c-0.1-0.2-0.2-0.4-0.4-0.6C95.2,178.3,94.6,178.6,94.1,179z M68.6,152.9c0.1,0.2,0.2,0.3,0.3,0.5c0.7-0.4,1.3-0.9,2-1.3
				c-0.1-0.1-0.1-0.3-0.2-0.4c-0.2,0-0.5,0-0.7-0.1c0,0,0,0,0,0C69.5,152,69,152.5,68.6,152.9z M157.6,119.8
				c-0.4,0.2-0.9,0.5-1.4,0.7C157.9,122.6,157.3,120.1,157.6,119.8z M28.5,95.4c0.1-0.1,0.1-0.2,0.2-0.3c-0.2,0-0.3,0-0.5,0
				C28.4,95.2,28.4,95.3,28.5,95.4z M102.8,127.1C102.8,127.1,102.8,127.1,102.8,127.1C103.1,126.9,103,126.9,102.8,127.1z
				 M22.5,86.9c0.2-0.1,0.4-0.2,0.5-0.3c-0.2,0-0.5,0-0.7,0C22.4,86.7,22.5,86.8,22.5,86.9z M111.4,43.6c-0.9,0.5-1.6,1.3-2.3,2.1
				c-0.2,0.2,0,0.8,0,1.2c0,0.8,0,1.5,0.4,2.3c1.3-1.7,2.6-3.5,3.9-5.2C112.6,43.3,111.9,43.3,111.4,43.6z M109.4,49.3
				C109.4,49.3,109.5,49.3,109.4,49.3C109.5,49.3,109.5,49.3,109.4,49.3C109.5,49.3,109.5,49.3,109.4,49.3z M153.3,50
				c-0.5,0.2-1,0.3-1.6,0.5c1.1,2.2,0.5,2.7-0.2,3.4c-2.6,3.6-53.6,41.1-55.8,44.7c-0.1,0.4-0.1,0.8-0.2,1.2c-0.1,0.5,2.1-1.4,2-0.9
				c0.1,0.1,2.3-0.9,2.5-0.8c1.3-0.3,36.6-29.9,37.9-30.3c0-0.2,3.9-2.9,3.9-3.1c-0.5-0.3-0.9-0.1-1.7-0.7c0.7-0.5,4.4-3.6,5.1-4.1
				c0.2,1.2,0.1,1.7,0.2,2.5c0.4,0.1,0.7,0.1,1.1,0.2c0,0.1,0,0.1,0.1,0.2l-2,1c0,0.2,0,0.2,0.1,0.3c0.6,0,1.2,0.1,1.8,0.1
				c0,0.1,0.1,0.1,0.1,0.2c-0.3,0.1-0.5,0.2-0.8,0.4c-0.1,0.1-0.4,0.3-0.3,0.5c0.8,2-0.2,1.9-0.6,2.4c0.7,1.3,0.7,2.2,0.2,2.5
				c-0.9,0.7-18.5,18.3-19.4,19c-0.6,0.5-0.9,1.4-1.4,2.1c0.1,0.3,0.2,0.4,0.3,0.7c6.2-3.1,18-16.6,18.6-16.6c0.4,0,0.7-0.5,1-0.8
				c0.1,0.2,0.2,0.3,0.3,0.5c-0.4,0.2-0.8,0.4-1.1,0.6c0.1,0.1,0.1,0.2,0.2,0.3c0.8-0.3,1.6-0.5,2.4-0.8c0-0.1-0.1-0.2-0.1-0.2
				c-0.2-0.1-0.3-0.1-0.8-0.3c0.3-0.2,0.5-0.4,0.6-0.3c1.9,0.9,2.2-1.1,3.2-1.8c0.4-0.3,0.9-0.5,1.4-0.8c0.1,0.1,0.2,0.3,0.2,0.4
				c-0.6,0.7-1.2,1.4-1.9,2.1c0,0.3,0.1,0.8,0.2,1.2c-0.1-0.2-0.2-0.3-0.3-0.5c-0.5,0.2-1.1,0.2-1.4,0.7c-0.8,1.5-2.3,2-2.4,4.5
				c0,0.1-0.1,0.2-0.2,0.2c-1.1-0.4-1.1,0.7-0.9,2c0.3,0.1,0.6,0.3,0.8,0.4c-0.4,0.9-0.8,1.8-1.1,2.7c-0.1-0.1-0.2-0.3-0.3-0.4
				l0.2-0.7c-0.2-0.2-0.2-0.2-0.4-0.4c-0.9,0.3-1.8,0.6-2.7,1c0.2,0.3,0.5,0.8,0.8,1.3l-2.3,1.2c1.9,2.6,1.9,2.6,3.3,2.2
				c0.2-0.1,0.5,0.1,0.9,0.4c-1.7,0.6-2.7,2.5-4.7,0.7c-0.3-0.3-0.6,0-0.9,0.3c0.2,0.1,0.4,0.2,0.7,0.3c-0.3,0.7-0.6,1.3-1,2.2
				c4.9-1.1,8.7-3.6,11.1-8.5c-0.1-0.2-0.2-0.4-0.4-0.6c-0.4,0.5-0.7,1.1-1.1,1.5c-0.2,0.2-0.6,0.1-0.9,0.1
				c-0.1-0.2-0.2-0.5-0.3-0.7c0.7-0.4,1.3-0.7,2-1.1c1.9-0.5,2-3.4,4-3.5c0.7-0.1,1-1.1,1.5-1.6c0.4-0.4,1-0.7,1.5-1
				c0.4-0.2,0.9-0.2,1.5-0.2c0.4,0,0.8,0.2,1.3,0.6c-1.8-0.3-2.5,1-3.2,2.5c0.7-0.1,1.4-0.2,2-0.2c0.2,0.5,0.4,0.9,0.6,1.5
				c-5.1-1.1-7.9,2.9-10.1,6.9c0.5-0.1,1-0.2,1.4-0.2c0.1,0.1,0.1,0.3,0.2,0.4c-0.6,0.3-1.2,0.6-2,1c1.7,0.9,7.2-1.1,8-2.9
				c-0.6,0.1-1.1,0.3-1.7,0.4c-0.1-0.3-0.3-0.6-0.4-0.8c1-0.3,2-0.6,3.1-0.9c1.3,4.2-2.9,3.4-5.1,5.4c-0.1,0.1-0.2,0.2-0.1,0.6
				c0.4-0.1,0.8-0.1,1.2-0.2c0.1,0.1,0.1,0.2,0.2,0.3c-0.3,0.2-0.6,0.3-0.9,0.4c-4.4,1.9-8.7,3.7-13,5.7c-1.2,0.3-1.9,2.6-3.2,1.6
				c-0.1-0.2-0.1-0.3-0.2-0.5c-4,2.1-7.9,4.2-11.9,6.3c0.1,0.1,0.1,0.3,0.2,0.4c0.2,0.1,0.5,0.3,0.7,0.3c1.4-0.4,2.9-0.5,3.9-1.8
				c0.7-0.9,2.2-0.6,3.3-1c0.5-0.2,1-0.6,1.4-1c0.3-0.3,0.6-0.7,0.9-1.1c2.3-0.6,4.6-1.3,6.6-3c0.4-0.3,0.8-0.6,1.4-0.7
				c-0.1,0.1-0.3,0.3-0.4,0.4c0,0.1,0.1,0.2,0.1,0.4c1.5-0.1,3.1-0.1,4.6-0.2c-0.2,0.3-0.5,0.6-0.7,0.9c0.4,0.5,0.7,0.9,0.9,1.2
				l-6.8,3.6c0.2,0.4,0.1,0.2,0.3,0.6c2.8-1.1,5.6-2.1,8.5-3.2c0.1,0.2,0.1,0.1,0.2,0.3c-6.6,4.5-14.4,6.2-21.2,10
				c4.8-0.1,8.3-3.1,12.7-4.1c-0.9,1.4-2.7,1.2-4,1.9c-4.1,2.3-8,5-12.4,6.6c0.7,0.1,1.4,0.2,2.4,0.4c-0.5,0.4-0.8,0.6-1.2,0.8
				c0.3,0.3,0.5,0.5,0.7,0.6c-7,2.1-14.1,6.1-21,7.6c-0.1,0.1-0.1,0.1-0.2,0.2c-0.5,0.3-1.9,1-1.2,0.6c2.1-1.4-1.3,3.8,5.2-0.2
				c0.9-0.4,1.8-0.7,2.7-1c0.2,0.2,0.2,0.2,0.3,0.4c-0.1,0.2-0.2,0.5-0.4,0.9c0.4,0.3,0.8,0.6,0.9,0.5c0.8-0.3,1.5-0.8,2.4-1.1
				c0.4-0.1,1,0.3,1.5,0.5c0,0.1,0.1,0.3,0.1,0.4c1.8-0.5,3.1-0.7,5-1.2c-0.4-0.9-0.7-1.4-0.9-1.9c1.3-0.3,2.3-0.5,3.5-0.9
				c-0.1-0.2-0.2-0.3-0.2-0.5c-0.9,0.1-1.5,0-2.4,0c-0.1-0.2-0.1-0.3-0.2-0.5c0.8-0.2,1.3-0.2,2-0.4c0.5-0.1,1-0.2,1.5-0.4
				c2-0.8,3.9-1.5,5.9-2.3c0.2-0.1,0.4,0,0.6,0.1c0.1,0.4,0.2,0.7,0.3,1l1.2-0.6c-0.2-0.2-0.4-0.4-0.5-0.6c0-0.1,0-0.2,0-0.2
				c1-0.3,2-0.6,3.1-0.9c0.1,0,0.3,0,0.5,0.1c1.3,1.2,1.7,0.3,2.5,0.1c-0.4-0.4-0.6-0.6-1-1.2c1.2-0.1,2,1.4,2.7,0.6
				c1.1-0.4,2.2-0.8,3.2-1.5c-0.5,0-1,0-1.5,0c2.1-2.5,4.9-3.6,8.3-3.7c-0.1,0.2-0.1,0.4-0.2,0.6c0,0.1-0.1,0.3,0,0.6
				c3.1-1.3,6.1-2.5,9.2-3.8c0,0.1,0.1,0.2,0.1,0.3c-0.2,0.2-0.3,0.3-0.5,0.5c0.1,0.1,0.1,0.3,0.2,0.4c2.9-0.4,5.8-0.9,7.9-3
				c-0.1-0.2-0.1-0.2-0.2-0.4c-0.6,0.1-1.1,0.2-1.7,0.4c-0.1-0.2-0.2-0.4-0.3-0.7c1-0.3,2-0.6,3.1-1c0.7,2.3,0.1,2.7-0.6,3.1
				c-1.3,1.1-4.2,1.3-4.5,3c0.4-0.1,0.8-0.1,1.2-0.2c-9.6,4.8-19.9,8.1-28.8,14.2c0.2,0.1,0.4,0.3,0.5,0.3c1.2-0.3,2.7-0.1,3.4-1.2
				c0.7-1.1,2.1-0.8,2.9-1.7c0.2-0.2,0.8,0.1,1.2,0.1c0.1,0.1,0.1,0.3,0.2,0.4c-0.2,0.2-0.4,0.5-0.6,0.7c0,0.1,0.1,0.1,0.1,0.2
				c0.4-0.2,0.8-0.3,1.4-0.6c-0.3-0.4-0.5-0.5-1-1c4.7-2.2,8.7-5.5,14.6-5.1c-0.1,0.1-0.2,0.3-0.3,0.4c-0.2,0.2-0.3,0.3-0.5,0.4
				c0.4,0.5,0.8,1,1,1.3l-7.4,3.9c0.1,0.3,0.1,0.2,0.2,0.5c3.1-1.2,6.3-2.4,9.4-3.5c0.1,0.1,0,0.1,0.1,0.2
				c-6.7,4.5-14.7,6.3-21.5,10.3c4.8-0.2,8.3-3.2,12.8-4.1l-16.2,8.6c0.6,0.1,1.2,0.2,1.8,0.3c0,0.1,0,0.1,0.1,0.2
				c-0.2,0.2-0.5,0.5-0.7,0.7l0.4,0.8c-7.7,2-19.3,7.8-22.7,6.4c-0.9,0.3-2.1,0.3-3.1,0.5c0.3,0.6,0.6,1.3,1,1.9
				c1.2-0.4,2.4-0.8,3.7-1.3l-6.7,3.6c0,0.2,0,0.2,0,0.3c0.6,0.2,1.2,0.5,1.9,0.8c-1.2,1.3-2.3,2.4-3.4,3.6
				c-0.1,0.1-0.2,0.1-0.3,0.1c-2.4-0.2-3.2,1.6-4.9,2.7c-1.4,0.9-3.1,1.2-5,0.9c-1.3-0.2-2-0.4-3.1-0.1c0.6-0.4,0.7-0.6,1.2-1.1
				c-0.2-0.3-0.1-0.3-0.3-0.6c-1.8,0.4-2.1,2.2-3.6,3.3c-0.1-0.1-0.2-0.3-0.2-0.4c0.3-0.2,0.5-0.5,0.9-0.8c-0.4-0.1-0.7-0.2-1-0.3
				c-0.1-0.2-0.1-0.3-0.2-0.6c1-1.7,1.6-3.1,2.7-4.8c-0.1-0.1-0.2-0.3-0.3-0.4c-0.2,0-0.4-0.1-0.5,0.1c-1.6,1.3-2.6,2.5-4.3,3.7
				c-0.6,0.4-1.6-0.1-2.2,0.3c-0.5,0.3-0.7,1.1-0.9,1.9c0.6-0.4,1.2-0.9,1.9-1.3c0.1,0.2,0.2,0.3,0.3,0.5c-0.4,0.4-0.7,0.8-1.1,1.2
				c-0.6,0.5-1.2,1-1.9,1.4c-0.2,0.2-0.3,0.9-1.1-0.2c-0.1-0.1-0.6,0.1-0.7,0.4c-0.8,1.1-1.5,2.4-2.3,3.5c-0.2,0.4-0.6,0.5-1,0.8
				c-0.5-1.5,0-3.1,0.7-2.9c0.2,0,0.6,0.2,0.6,0.1c1.6-2.8,4.1-4.1,5.6-7.1c0.5-0.7,1.1-1.3,1.6-2.2c-2.5,2.2-5.1,4.3-7.6,6.5
				c-0.2-0.2-0.1-0.1-0.3-0.3c3.4-3.6,6.9-7.1,10.3-10.7c-0.2-0.3-0.2-0.2-0.3-0.5c-1.4,0.5-2.8,1-4.2,1.5c0.1-0.2,0.1-0.5,0.2-0.8
				c-0.1-0.1-0.1-0.2-0.2-0.3c-5,3.9-9.3,7.6-11.8,13.7c-0.1-0.2-0.3-0.3-0.4-0.5c0.1-0.4,0.1-0.9,0.2-1.2c2.7-4.3,5.3-9.1,8.2-13.2
				c2.2-2.9,4.3-5.2,6.8-7.8c0.1-0.1,6.9-8.1,6.9-8.5c-1.8-0.1-3.2-0.5-5.1-0.6c0-0.1-6.8,7.8-6.8,7.7c0.4-0.3,0.3-0.3,0.7-0.6
				c-0.1-0.1-0.1-0.3-0.2-0.4c-0.3,0.1-0.2-0.3-0.4-0.1c-2.2,2.9-4.7,5.5-7.4,7.9c-0.1-0.1-0.2-0.3-0.2-0.4c1.1-1.2,2.2-2.4,3.3-3.6
				c-2.3,1.3-5.1,1.6-6,5.5l1.5-0.2c0.1,0.2,0.1,0.2,0.3,0.4c-0.8,1.5-2.8,0.2-2.7,2.2c0.4,0.1,0.8,0.2,1.1,0.3c0,0.2,0,0.2,0,0.4
				c-0.5,0.2-1,0.4-1.4,0.8c-0.2,0.2-0.3,0.8-0.4,1.1l0,0c-0.1,0.1-0.2,0.2-0.4,0.2c-2.8-0.7-1.4,5.4-4.5,5.1
				c-0.7,0-0.9,1.1-1.3,1.7c-0.4,0.5-0.9,0.9-1.3,1.4c-1.5-2.8,0-2.1,0.4-4.7c2-0.2,2.5-2.4,4-3.5c-0.2,0-0.4,0.1-0.8,0.2
				c0.5-1,0.9-1.8,1.3-2.7c-0.3-0.1-0.5-0.2-0.7-0.3c0.1-0.4,0.1-0.7,0.2-1.2c-1.2,0.7-1.4,1.3-0.7,2.8c-0.4-0.3-0.8-0.5-1.2-0.7
				c-0.4,0.4-0.9,0.9-1.4,1.3c-0.1-0.2-0.2-0.4-0.3-0.5l5.2-5.6c-0.1-0.1-0.1-0.1-0.2-0.2c-1.7,1.1-3.3,2.3-5,3.4
				c-0.1-0.1-0.1-0.2-0.2-0.3c0.4-0.3,0.7-0.6,1.1-0.8c1.4-0.7,2.2-2.1,2.5-4.2c0.1-0.7,0.5-0.6,1.2,0c1.4,0.9,2.3-1.7,3.2-2.3
				c-0.1,0-0.3-0.1-0.6-0.2c-0.1-0.3-0.1-0.6-0.2-1.1c-2.5,1.8-5,3.6-7.4,5.4c0-0.1,0-0.3-0.1-0.6c-0.8,0.8-1.6,1.5-2.4,2.2
				c0-0.1-0.1-0.2-0.1-0.2c1.1-1.5,2.1-3,3.2-4.5c-0.2-0.2-0.2-0.2-0.3-0.4c-2.8,1.6-3.9,5.6-6.7,6.9c-0.1-0.2-0.2-0.3-0.3-0.5
				c0.9-0.8,1.8-1.7,2.7-2.5c-0.1-0.2-0.1-0.2-0.2-0.5c-5,1-7.8-4-12.7-4.5c-0.1-0.1,14.5-14.3,14.4-14.5c-0.2-0.3-0.3-0.7-0.4-0.8
				l0.4-1c-0.3-0.2-0.7-0.5-0.9-0.6c-1-0.3-18,16-18.1,15c0.3,0-2,0.4-1.5,0.4c-1-0.9,0.7-2-0.1-2.8c0-0.2-0.1-0.4-0.1-0.6
				c1.5,0.7,4.7-5.5,4.9-6.7c-4.6-0.8-11.5,7.9-15.5,9.7c-1.1,0.7-2.9-0.6-4.3-0.6c0.1-0.1,0.2-0.2,0.3-0.2c0.1-0.1,0.3-0.1,0.5-0.2
				c5-5,5.4-4.5,10.8-8.9c0.2-0.2,5.4-3.5,5.3-3.8c2.7-1.7,7.3-4,8.4-7.1c-1.8,0.1-16,9.1-17.6,9.9c-0.1-0.2-0.2-0.3-0.3-0.5
				c0.4-0.4,0.9-0.8,1.4-1.3c-0.6-0.1-1-0.2-1.7-0.4c0.8-0.9,1.8-0.2,0.9-2.3c-0.5-1.3,0.7-1.9,1.3-2.9c-0.5-0.6-0.8-1.1-1.3-1.8
				c1.6,1.1,2.5,1.4,3.4,0.3c0.2-0.1,12.9-6.1,12.2-6.8c0.2-0.2,0.3-0.5,0.6-0.6c0.4-0.2,0.8-0.3,1.2-0.4c0-0.2,0-0.2,0-0.5
				c-0.4-0.2-0.8-0.4-1.5-0.8c0.3-0.9,0.6-1.5,0.9-2.2c-0.1-0.7-12.7,4.1-12.9,3c-1.4,0.3-2.6,0.6-3.9,0.9c-0.1-0.4-0.1-0.2-0.2-0.7
				c1.4-0.5,2.9-1,4.5-1.6l-1-0.7c0.4-0.4,0.8-0.9,1.2-1.3c0,0.1,0.1,0.1,0.1,0.2c0,0.3-0.1,0.5-0.2,1c1.2-0.2,19.7-11.2,20.7-11.3
				c-0.1-0.2-0.1-0.4-0.2-0.6c-0.3,0-0.5-0.1-0.8-0.1c0.3-1.5,1.4-1.4,2.3-1.6c0.4-0.1,0.6-0.5,0.4-0.9l0,0
				c-0.2-0.3-0.1-0.7,0.3-0.8l1-0.4c-0.1-0.1-0.1-0.3-0.2-0.4c-1.8,0.2-20.9,11.2-22.7,11.7c0.1-0.4,0.1-0.8,0.2-1.3
				c-1.6-0.3-0.9,2.9-2.9,2.9c-0.6,0.5-1.2,0.9-1.8,1.4c-0.1,0.1-0.6,0.2,0.2,0.8c-0.1,0.5,0,1.3-0.3,1.5c-0.4,0.2-1,0-1.6-0.1
				c0.1-0.6,0.1-1.2,0.2-1.7c0.1-0.3,0.2-0.6,0.2-1c0-0.3-0.3-0.8-0.6-1.4c0.4-0.3,2.4,1.7,1.5-1.3c-2.3-0.9-3.2,0.9-4.9,1.4
				l0.9,0.9c-0.4,0.8-0.7,1.5-1.1,2.4c-0.2-0.6-0.2-0.8-0.3-1.2c-0.5,0-1,0-1.4-0.1c-0.1-0.1-0.2-0.3-0.3-0.4
				c0.1-0.4,0.1-1.1,0.3-1.2c1.7-1,3.4-1.9,5.1-2.9c0.1-0.1,0.3-0.1,0.3-0.6c-0.3,0-0.7,0.1-1.1,0.1c2.4-1.3,4.8-2.6,7.2-3.8
				c-0.1-0.1-0.1-0.3-0.2-0.4c-0.5,0.2-1,0.4-1.5,0.6c0-0.1-0.1-0.2-0.1-0.3c0.6-0.3,1.3-0.7,2-1.1c-1.1-1.3-1.9-2.4-3-3.7l7.6-4
				c-0.1-0.3-0.1-0.1-0.2-0.4c-3.2,1.4-6.3,2.8-9.5,4.1c0,0,0-0.1-0.1-0.1c3.5-1.9,7.3-3.9,11-4.8c0.3-0.4,0.5-0.7,0.8-1.1
				c-0.3,0-0.6-0.2-0.9-0.1c-1.6,0.6-3.2,1.3-5,1.6c3.6-1.6,7.2-3.2,10.8-4.9c-0.1-0.2-0.2-0.3-0.2-0.5c-2.1,0.9-4.2,1.7-6.2,2.6
				c-0.2-0.2-0.2-0.2-0.3-0.5c1.1-1.4,2.2-2.7,3.4-4.2c0.1,0.7,0.1,1.1,0.2,1.9c1.8-1.5,3-2.6,4.7-4.1c-1.6,0.1-2.6-0.1-4.3,0
				c0.5,0.5,0.7,0.7,0.9,0.9c-2.2-0.8-3.4,0.5-4.8,1.3l0.8,0.2c0,0.2,0,0.3,0.1,0.5c-0.8,0.4-1.6,0.6-2.3,1.3
				c-1.1,1.1-2.1,2.4-3.2,3.6c-0.7,0.7-1.5,1.4-2.2,2.1c-0.2-0.1-0.2-0.1-0.4-0.3c0.5-1.1,1-2.1,1.4-3.2c-0.1-0.1-0.1-0.1-0.3-0.2
				c-0.5,0.5-1.1,0.9-1.6,1.4c-0.5,0.6-1,1.3-1.5,2.1c-0.5,0.7-0.9,1.5-1.3,2.2c0.2,0.2,0.4,0.4,0.6,0.6c-0.1,0.1-0.1,0.2-0.2,0.2
				c-0.3,0.7-0.6,1.4-1,2c-0.1,0.2-0.3,0.4-0.5,0.5c-1.5,0.7-2.4,2.1-3,4.1c0,0.2,0,0.5,0.1,0.7l0,0c0,0,0,0,0,0c0,0,0,0,0,0
				c0,0,0,0,0,0c0,0,0,0,0,0c0,0,0,0,0,0c-0.4,1.1-0.8,2.4-1.4,3.3c-0.4,0.7-1,1.1-1.7,1.3c-1.7,0.1-1.4,2.7-3,3.3
				c-1-1.6-1-2.3-0.3-2.6c0.2-0.1,0.4-0.5,0.5-0.8c-0.1-0.2-0.2-0.3-0.3-0.5c-0.2,0.1-0.4,0.2-0.7,0.4c-0.1-0.1-0.2-0.3-0.2-0.4
				c3.2-1.5,6-3.6,7.5-8c-0.1,0-0.2,0-0.3,0l7-10.4c-0.1-0.2-0.1-0.1-0.2-0.3c-3,1.3-5.9,2.6-8.9,3.8c0-0.1-0.1-0.1-0.1-0.2
				c0.1-0.2,0.3-0.4,0.4-0.6c-0.2-0.2-0.2-0.2-0.3-0.4c-2.6,1-5.1,2-7.7,3.1c0.2,0.5,0.1,0.3,0.2,0.7c0.6-0.1,1.1-0.3,1.7-0.4
				l0.2,0.5c-1.7,0.9-1,0.5-2.6,1.4l-0.7-1.1c0.9-2.5,4-2.8,5.8-4.5c-0.1,0-0.3,0-0.4,0c5-2.9,10.3-5.2,15.5-7.6
				c0.2-0.1,0.2-0.8,0.2-1.3c-3.2,1.4-6.2,3-9.9,3.1c0.1-0.2,0.4-0.5,0.6-0.8L28.8,79l6.6-3.5c-0.1-0.3-0.1-0.2-0.2-0.4
				c-2.6,1.1-5.2,2.1-7.7,3.2l-0.4-0.7c7-3.1,13.5-6,20.5-9.1c-0.1-0.2-0.2-0.5-0.4-0.7c-4,1.7-7.6,3.3-11.6,5c0-0.1,0-0.1-0.1-0.2
				l15.8-8.4c-0.4,0-1.1-0.1-2-0.1c0.4-0.4,0.6-0.5,0.9-0.8c-1.3-0.5-1.9,0.1-1.3,1.8c-0.6,0-1.2,0-1.8-0.1l0.1-1.1
				c13.1-5.3,12.2-3.1,26.6-9c0-0.1-0.2-0.5-0.5-1.2c-1.1,0.4-2.2,0.8-3.3,1.3c0,0,0,0,0,0l7.2-3.8c0-0.2,0-0.2,0-0.3
				c-0.5-0.1-1-0.3-1.6-0.5c4.3-4.1,9.8-7.8,16.1-7.3c-0.3,0.4-0.4,0.6-0.6,0.8c0.1,0.2,0.2,0.4,0.3,0.6c1.3-1.1,2.6-2.3,4-3.4
				c0,0.1,0.1,0.1,0.1,0.2c-0.2,0.5-0.6,0.5-0.5,1.2c2.8-1.3,4.5-4.1,6.8-6.1c0.1,0.2,0.2,0.3,0.3,0.5c-2.7,3-5.6,5.2-7.1,9.3
				c5.1-4.3,10.3-8.6,15.4-12.8c0.2,0.2,0.1,0.1,0.3,0.4c-3.3,3.4-6.7,6.9-10,10.3c0.2,0.2,0.1,0.1,0.3,0.3c1.7-1.2,3.4-2.5,5.1-3.7
				c0,0.1,0.1,0.1,0.1,0.2c-3.6,3.2-7.1,6.4-10.7,9.6c5.6,0.3,6.9-7.6,12.2-8.2c1.6-0.8,1.3-4.1,3.3-4c0,0,0.1,0.1,0.1,0.1
				c0,0.1,0,0.3,0,0.5c2.2-1.8,3.1-5.4,6-5.9c-3,1.8-4.5,5.9-6.3,9.4c2.7-1.1,5-6.4,8.1-3.4c-0.1,0.7-0.2,1.3-0.2,2
				c0.1,0.2,0.3,0.3,0.4,0.5c0.2-1.4,0.6-2.6,2.1-1.9c0,0.7,0.1,1.3,0.1,2c0.1,0.1,0.3,0.2,0.5,0.4c-0.2,1-1.3,1.6,0.7,3.9
				c-1.9,1.8-3.9,2.5-3.5,6c0.1,0.4-0.4,0.5-0.5,0.8c-0.3,0.7-18.9,17.5-19.1,18.1c0.3,0.2,0.2,0.2,0.5,0.3
				c1.3-1.1,21-18.3,22.2-19.5c-0.2-0.4-0.2-0.4-0.4-0.8c-0.8,0.1-1.6,0.2-2.3,0.3c1.1-2.5,2.7-3.7,5.5-2.7c0.4,0.1,1.2,0.3,2,1.4
				c2,0.2,2.8-3.2,4.2-4.4c0.2-0.3,0.6-0.2,1.1,0c-1.2,1.5-2.5,3-3.7,4.5c0.2,0.4,0.2,0.5,0.4,1c2.7,0.1,5.5,0.3,8.2,0.4
				c0.1,0.3,0.3,0.6,0.4,1l-0.7,0.5l0.3,0.7c0.8,0.1,1.9,0.5,2.5,0.2c3.1-1.4,6.2-3,9.3-4.5c0.5-0.2,0.9-0.7,1.9,0.7
				c0.2,0.3,0.7,0.2,1,0.3C152.4,49.7,152.8,49.7,153.3,50z M52.2,134.1c-1.3-0.7-1.5,0.6-2.1,1c0.1,0.2,0.2,0.4,0.3,0.6
				C51,135.2,51.6,134.7,52.2,134.1z M60.1,136.1c-1.4-2-1.9-2.1-2.8-0.5c0.4,0,0.6,0,0.8,0c-0.1,0.5-0.1,0.9-0.2,1.4
				c0.4,0.1,0.9,0.4,1.2,0.3C59.5,137,59.8,136.5,60.1,136.1z M47.9,85.7c0.1-0.1,0.1-0.1,0.2-0.2C48,85.5,47.9,85.6,47.9,85.7z
				 M47.7,85.8c0,0,0.1-0.1,0.1-0.1C47.8,85.8,47.7,85.8,47.7,85.8z M47.5,86c0,0,0.1-0.1,0.1-0.1C47.6,85.9,47.6,86,47.5,86z
				 M47.3,86.2c0,0,0.1-0.1,0.1-0.1C47.4,86.1,47.4,86.1,47.3,86.2z M47.1,86.3c0,0,0.1-0.1,0.1-0.1C47.2,86.2,47.2,86.3,47.1,86.3z
				 M46.9,86.4c0,0,0.1,0,0.1-0.1C47,86.4,47,86.4,46.9,86.4z M46.7,86.5c0,0,0.1,0,0.1-0.1C46.8,86.5,46.8,86.5,46.7,86.5z
				 M46.5,86.6c0,0,0.1,0,0.1-0.1C46.6,86.6,46.5,86.6,46.5,86.6z M46.3,86.7c0.1,0,0.1,0,0.2-0.1C46.4,86.7,46.3,86.7,46.3,86.7z
				 M46,86.8c0.1,0,0.1,0,0.2-0.1C46.2,86.7,46.1,86.7,46,86.8z M44.8,87.1c0.4-0.1,0.8-0.2,1.2-0.4C45.6,86.9,45.2,87,44.8,87.1z
				 M64.5,132.9c0.5-0.5,1-1.1,1.5-1.6c-0.1-0.1-0.2-0.3-0.3-0.4C64.5,130.9,63.9,131.4,64.5,132.9z M69.2,134.8
				c0.5-0.4,1.1-0.7,0.6-2.4c-1.4,0.7-1.7,3.1-3.6,3.3c0.3-0.7,0.4-1.1,0.6-1.6c-0.1-0.2-0.2-0.4-0.4-0.5c-0.7,1-1.5,2-2.2,3
				c0.2,0.2,0.3,0.5,0.5,0.7c0.4-0.4,0.8-0.7,1.3-1.1c0.1,0.4,0.2,0.7,0.3,1.1c0.2,0,0.4,0,0.5-0.1
				C67.5,136.5,68.3,135.6,69.2,134.8z M75.5,140.9c-0.1-0.2-0.3-0.5-0.4-0.7c-0.6,0.7-1.2,1.4-1.8,2c0.1,0.2,0.2,0.3,0.3,0.5
				C74.2,142.1,74.8,141.5,75.5,140.9z M73.3,136.8c-0.4,0.7-0.7,1.3-1.1,2C74,137.9,74,137.9,73.3,136.8z M77.6,128.5
				c-3.3,1.3-5.4,3.5-7.2,7.3C73.7,134.5,74.9,130.7,77.6,128.5z M50.8,72.7c-1.7-0.8-2.9,0-2.8,1.5C49,73.7,49.6,73.4,50.8,72.7z
				 M92.1,145.8c-0.2-0.2-0.3-0.5-0.5-0.7c-1.4,1.7-2.3,3.2-3.7,4.9c0.1,0.2,0.2,0.4,0.3,0.6c0.4,0,0.9,0.2,1.1,0
				c0.6-0.8,0.7-1.6,1.2-2.5C91.1,147.4,91.6,146.6,92.1,145.8z M75.4,67c-0.1-0.2-0.2-0.4-0.3-0.6c-2,0.9-9.9,5.8-11.5,7.4
				C65.5,72.8,73.5,68,75.4,67z M102.5,126.6c-0.2,0-0.5,0.2-1.1,0.8C101.6,127.1,102,126.9,102.5,126.6z M104.5,125.2
				c-0.4,0.2-0.6,0.4-0.7,0.5C104.3,125.4,104.6,125.2,104.5,125.2z M92.5,46.8c0.1,0.2,0.3,0.4,0.4,0.7c0.5-0.7,0.9-1.5,1.4-2.2
				c-0.1-0.1-0.2-0.3-0.3-0.4C93.5,45.5,93,46.1,92.5,46.8z M94.5,50.3c-0.1-0.2-0.3-0.4-0.4-0.6c-1,1.3-2,2.5-3,3.8
				c0.1,0.1,0.2,0.3,0.3,0.4C92.4,52.8,93.8,52.2,94.5,50.3z M119,44.4c-0.4-0.1-0.9-0.5-1.1-0.3c-0.6,0.5-1.1,1.1-1.8,1.8
				c0.3,0.1,0.4,0.1,0.6,0.1c-0.6,1-1.1,2-1.7,3c0.1,0.1,0.1,0.3,0.2,0.4c0.4,0.1,0.7,0.1,1.2,0.2c-0.5,0.4-1,0.8-1.4,1.3
				c-0.9,1-0.9,1.1-0.8,1.6c0.5-0.4,1-0.8,1.4-1.3c0.1,0.1,0.2,0.3,0.3,0.4c0,0.4,0,0.8,0.1,1.5c0.9-0.5,1.6-0.9,2.5-1.3
				c-0.5-0.3-0.8-0.4-1.2-0.6c0.3-0.4,0.5-0.8,0.7-1c1-0.9-1-4.1,1.2-5.1C119.1,44.8,119,44.6,119,44.4z M114.9,50.8
				c-0.2-0.2-0.3-1.9-0.5-2.1c-1.1,1.3-2.3,2.6-3.4,3.9C113.4,51.9,115.4,53.4,114.9,50.8z M115.5,43.5L115.5,43.5
				c0.5-0.4,0.9-1,1.4-1.3C116.4,42.6,116,43.1,115.5,43.5z M118.4,39.8c-0.1-0.2-0.2-0.3-0.3-0.5l0,0
				C118.2,39.5,118.3,39.7,118.4,39.8z M95.8,60.9c1.6-1.4,12.2-10,13.7-11.6c0,0,0,0,0,0c0.1,0.1,0.3,0.2,0.4,0.1
				c1-0.7,2.1-1.4,3.1-2.1c0.1-0.1-0.2-0.7-0.3-1.4c2-1.3,3-3.1,1.4-5.7c-4,4.3-18.2,14-20.7,20.6C94.3,60.8,95.3,61.4,95.8,60.9z
				 M110.5,52.2c-2.2-0.7-2.6,1.6-3.7,2.7C108.5,54.8,108.9,52.5,110.5,52.2z M135.6,94.4L135.6,94.4
				C135.6,94.4,135.6,94.4,135.6,94.4C135.6,94.4,135.6,94.4,135.6,94.4z M99.7,70.7c-1.2-0.3-1.2-0.3-2.3,2.7
				C98.1,72.5,98.8,71.7,99.7,70.7z M123.5,51.9c0.6,0.1,1.2,0.3,1.7,0.1c0.5-1,1.3-1.6,2.5-1.8c-0.1-0.2-0.1-0.3-0.2-0.5
				c-0.8,0-1.7-0.1-2.4,0.1c-0.6,0.2-0.9,0.8-1.4,1.1c-0.1,0.1-0.3,0.2-0.5,0.3C123.3,51.5,123.4,51.7,123.5,51.9z"/>
		</defs>
		<clipPath id="SVGID_00000003812705588966563310000004679072163224800950_">
			<use xlink:href="#SVGID_1_"  style="overflow:visible;"/>
		</clipPath>
		<path style="clip-path:url(#SVGID_00000003812705588966563310000004679072163224800950_);fill:#BA3900;" d="M173.4,141.1V62.3
			c0-5.2-2.8-10.1-7.3-12.7L97.7,10.2c-4.5-2.6-10.1-2.6-14.7,0L14.8,49.6c-4.5,2.6-7.3,7.5-7.3,12.7v78.8c0,5.2,2.8,10.1,7.3,12.7
			l68.3,39.4c4.5,2.6,10.1,2.6,14.7,0l68.3-39.4C170.6,151.2,173.4,146.4,173.4,141.1z"/>
		<path style="clip-path:url(#SVGID_00000003812705588966563310000004679072163224800950_);fill:#FFFFFF;" d="M107.4,90.1
			c-15-3.9-30.7-6-31.2-13.5c0-6,7.4-7.2,11.9-7.2c1.3,0,2.8,0.3,3.8,0.3c19.2,0.9,29,7.4,29,7.4l11.4-18.8l-12.7-4.6
			c-8.4-3.6-18.7-4.8-25.1-5.2c-1.8-0.1-3.6-0.2-5.4-0.2c-0.1,0-0.2,0-0.2,0c-0.3,0-0.5,0-0.5,0l0,0c-3.5,0-7.2,0.4-10.9,1.1
			c-4,0.8-7.7,2.1-11,4c-3.3,1.9-6,4.5-8.1,7.7c-2.1,3.2-3.2,7.2-3.2,12.1c0,4.9,1.1,8.7,3.3,11.7c2.2,2.9,5,5.3,8.5,7.1
			c3.5,1.8,7.5,3.2,11.9,4.2c4.4,1,9,2.1,13.6,3.2c5.1,1.3,9.8,2.6,14.3,3.8c4.5,1.2,8.4,2.8,11.8,4.9c3.3,2,6,4.7,8,8
			c2,3.3,3,7.8,3,13.5c0,5.2-1.1,9.6-3.3,13.2c-2.2,3.6-5.2,6.6-8.8,9c-1.7,1.1-3.5,2.1-5.4,2.9c14.5-4.8,25.7-15,25.7-33.5
			C137.7,101.2,122.6,94.4,107.4,90.1z"/>
		<path style="clip-path:url(#SVGID_00000003812705588966563310000004679072163224800950_);fill:#1AB9FF;" d="M74.6,112.7
			c15,3.9,30.7,6,31.2,13.5c0,6-7.4,7.2-11.9,7.2c-1.3,0-2.8-0.3-3.8-0.3c-31.4-2.3-37.9-12.4-37.9-12.4l-20.8,21.8l31,6.5
			c8.4,3.6,18.7,4.8,25.1,5.2c1.8,0.1,3.6,0.2,5.4,0.2c0.1,0,0.2,0,0.2,0c0.3,0,0.5,0,0.5,0l0,0c3.5,0,7.2-0.4,10.9-1.1
			c4-0.8,7.7-2.1,11-4c3.3-1.9,6-4.5,8.1-7.7c2.1-3.2,3.2-7.2,3.2-12.1c0-4.9-1.1-8.7-3.3-11.7c-2.2-2.9-5-5.3-8.5-7.1
			c-3.5-1.8-7.5-3.2-11.9-4.2c-4.4-1-9-2.1-13.6-3.2c-5.1-1.3-9.8-2.6-14.3-3.8c-4.5-1.2-8.4-2.8-11.8-4.9c-3.3-2-6-4.7-8-8
			c-2-3.3-3-7.8-3-13.5c0-5.2,1.1-9.6,3.3-13.2c2.2-3.6,5.2-6.6,8.8-9c1.7-1.1,3.5-2.1,5.4-2.9c-14.5,4.8-25.7,15-25.7,33.5
			C44.3,101.6,59.4,108.4,74.6,112.7z"/>
	</g>
	<path class="st4" d="M91.2,14c0.3,0,0.7,0,1.1,0.3l75,43.3c0.7,0.4,1.1,1.1,1.1,1.9v86.6c0,0.8-0.4,1.5-1.1,1.9l-75,43.3
		c-0.4,0.2-0.8,0.3-1.1,0.3c-0.3,0-0.7,0-1.1-0.3l-75-43.3c-0.7-0.4-1.1-1.1-1.1-1.9V59.5c0-0.8,0.4-1.5,1.1-1.9l75-43.3
		C90.5,14.1,90.9,14,91.2,14 M91.2,0c-2.8,0-5.6,0.7-8.1,2.2l-75,43.3c-5,2.9-8.1,8.2-8.1,14v86.6c0,5.8,3.1,11.1,8.1,14l75,43.3
		c2.5,1.4,5.3,2.2,8.1,2.2c2.8,0,5.6-0.7,8.1-2.2l75-43.3c5-2.9,8.1-8.2,8.1-14V59.5c0-5.8-3.1-11.1-8.1-14l-75-43.3
		C96.7,0.7,94,0,91.2,0L91.2,0z"/>
</g>
</svg>
