<?xml version="1.0" encoding="utf-8"?>
<!-- Generator: Adobe Illustrator 27.2.0, SVG Export Plug-In . SVG Version: 6.00 Build 0)  -->
<svg version="1.1" id="Layer_1" xmlns="http://www.w3.org/2000/svg" xmlns:xlink="http://www.w3.org/1999/xlink" x="0px" y="0px"
	 viewBox="0 0 288.5 64.4" style="enable-background:new 0 0 288.5 64.4;" xml:space="preserve">
<style type="text/css">
	.st0{fill:#29374D;}
	.st1{fill:#FFFFFF;}
	.st2{fill:#1AB9FF;}
	.st3{fill:#8CBFE0;}
</style>
<g>
	<path class="st0" d="M276.1,61.3H12.4c-5.1,0-9.3-4.1-9.3-9.3V12.4c0-5.1,4.1-9.3,9.3-9.3h263.7c5.1,0,9.3,4.1,9.3,9.3V52
		C285.4,57.1,281.2,61.3,276.1,61.3z"/>
	<g>
		<path class="st1" d="M85.5,32.9v-7.8h1.4c2.6,0,3.6,1.1,3.6,4.2c0,1.8-0.4,2.9-1.2,3.6h10.8c0.3-1.3,0.5-2.7,0.5-4.2
			c0-8.2-4.2-11.6-13.4-11.6H75.4v15.8H85.5z"/>
		<polygon class="st1" points="135.4,32.9 146,32.9 146,25.4 153.7,25.5 153.5,17.1 127.4,17.1 127.2,25.5 135.4,25.4 		"/>
		<polygon class="st1" points="112.8,32.9 113.6,24.9 114,24.9 114.9,32.9 124.8,32.9 122.2,17.1 106.2,17.1 103.6,32.9 		"/>
		<path class="st1" d="M58.7,32.9c0.1-6.6,1.5-8.2,4.8-8.2c0.5,0,1.1,0,1.7,0l0.2,2.8h8.5l-0.4-10c-2.8-0.6-6.9-1.1-10.3-1.1
			c-9.6,0-14.4,4.6-14.7,16.4H58.7z"/>
		<path class="st1" d="M163.7,32.9c0.1-6.6,1.5-8.2,4.8-8.2c0.5,0,1.1,0,1.7,0l0.2,2.8h8.5l-0.4-10c-2.8-0.6-6.9-1.1-10.3-1.1
			c-9.6,0-14.4,4.6-14.7,16.4H163.7z"/>
		<polygon class="st1" points="246.3,32.9 246.3,30.2 235.6,30.2 235.6,24.9 248.2,25 248.1,17.1 225,17.1 225,32.9 		"/>
		<polygon class="st1" points="276.2,32.9 276.2,17.1 267.7,17.1 263.1,28.1 258.5,17.1 250,17.1 250,32.9 		"/>
		<polygon class="st1" points="205.8,32.9 205.8,17.1 195.6,17.1 195.6,29.8 190.4,29.8 190.4,17.1 180.3,17.1 180.3,32.9 		"/>
		<path class="st1" d="M223.5,12.4l-10.1-2.5c-0.5,1.8-2.4,8.6-5.3,14.5l7.6,3C220.6,21.2,222.4,17.1,223.5,12.4z"/>
		<polygon class="st2" points="235.6,37.7 246.3,37.8 246.3,34.8 225,34.8 225,50.5 248.1,50.5 248.2,42.7 235.6,42.8 		"/>
		<polygon class="st2" points="259.1,34.8 260.3,39.8 265.9,39.8 267.1,34.8 		"/>
		<polygon class="st2" points="250,34.8 250,50.5 258.7,50.5 258.7,40.4 258.6,34.8 		"/>
		<polygon class="st2" points="267.5,34.8 267.5,40 267.5,50.5 276.2,50.5 276.2,34.8 		"/>
		<path class="st2" d="M169.7,42.1c-3.8,0-5.7-1.7-5.9-7.3h-10.2c0.2,11.1,4.8,16.4,14.7,16.4c4.4,0,8.5-0.7,10.8-1.8l-0.9-8
			C176,41.8,172.1,42.1,169.7,42.1z"/>
		<polygon class="st2" points="180.3,34.8 180.3,50.5 190.4,50.5 190.4,38.2 195.6,38.2 195.6,50.5 205.8,50.5 205.8,34.8 		"/>
		<path class="st2" d="M115.1,34.8l0.4,3.1l-1.6-0.1l-1.6,0.3l0.3-3.2h-9.3l-2.4,14.6c-1.8-3.4-3.4-6.8-5-10.4
			c1.5-1.1,2.7-2.5,3.4-4.3h-24v15.8h10.1v-9.1h1.3c1.1,3.2,2.2,6,3.6,9.3l10.3-0.3l0,0.1h10.2l0.5-4.4h5l0.5,4.4h10.8l-2.6-15.8
			H115.1z"/>
		<rect x="135.4" y="34.8" class="st2" width="10.6" height="15.8"/>
		<path class="st2" d="M64.6,42.1c-3.8,0-5.7-1.7-5.9-7.3H48.5c0.2,11.1,4.8,16.4,14.7,16.4c4.4,0,8.5-0.7,10.8-1.8l-0.9-8
			C71,41.8,67.1,42.1,64.6,42.1z"/>
		<path class="st1" d="M37.4,30.1c-5-1.3-10.1-2-10.3-4.5c0-2,2.4-2.4,3.9-2.4c0.4,0,0.9,0.1,1.2,0.1c6.3,0.3,9.6,2.5,9.6,2.5
			l3.8-6.2l-4.2-1.5c-2.8-1.2-6.2-1.6-8.3-1.7c-0.6,0-1.2-0.1-1.8-0.1c0,0-0.1,0-0.1,0c-0.1,0-0.2,0-0.2,0l0,0
			c-1.2,0-2.4,0.1-3.6,0.4c-1.3,0.2-2.5,0.7-3.6,1.3c-1.1,0.6-2,1.5-2.7,2.5c-0.7,1-1,2.4-1,4c0,1.6,0.4,2.9,1.1,3.8
			c0.7,1,1.6,1.7,2.8,2.3c1.1,0.6,2.5,1.1,3.9,1.4c1.5,0.3,3,0.7,4.5,1c1.7,0.4,3.2,0.8,4.7,1.2c1.5,0.4,2.8,0.9,3.9,1.6
			c1.1,0.7,2,1.5,2.6,2.6c0.6,1.1,1,2.6,1,4.4c0,1.7-0.4,3.1-1.1,4.3c-0.7,1.2-1.7,2.2-2.9,3c-0.6,0.4-1.2,0.7-1.8,1
			c4.8-1.6,8.5-4.9,8.5-11C47.3,33.7,42.4,31.5,37.4,30.1z"/>
		<path class="st2" d="M26.6,37.5c5,1.3,10.1,2,10.3,4.5c0,2-2.4,2.4-3.9,2.4c-0.4,0-0.9-0.1-1.2-0.1c-10.3-0.7-12.5-4.1-12.5-4.1
			l-6.8,7.2c0,0,6.2,1.2,8.7,2c2.9,0.9,7.7,1.7,9.8,1.9c0.6,0,1.2,0.1,1.8,0.1c0,0,0.1,0,0.1,0c0.1,0,0.2,0,0.2,0l0,0
			c1.2,0,2.4-0.1,3.6-0.4c1.3-0.2,2.5-0.7,3.6-1.3c1.1-0.6,2-1.5,2.7-2.5c0.7-1,1-2.4,1-4c0-1.6-0.4-2.9-1.1-3.8
			c-0.7-1-1.6-1.7-2.8-2.3c-1.1-0.6-2.5-1.1-3.9-1.4c-1.5-0.3-3-0.7-4.5-1c-1.7-0.4-3.2-0.8-4.7-1.2c-1.5-0.4-2.8-0.9-3.9-1.6
			c-1.1-0.7-2-1.5-2.6-2.6c-0.6-1.1-1-2.6-1-4.4c0-1.7,0.4-3.1,1.1-4.3c0.7-1.2,1.7-2.2,2.9-3c0.6-0.4,1.2-0.7,1.8-1
			c-4.8,1.6-8.5,4.9-8.5,11C16.6,33.8,21.5,36.1,26.6,37.5z"/>
	</g>
	<g>
		<path class="st3" d="M276.1,64.4H12.4C5.6,64.4,0,58.9,0,52V12.4C0,5.6,5.6,0,12.4,0h263.7c6.8,0,12.4,5.6,12.4,12.4V52
			C288.5,58.9,283,64.4,276.1,64.4z M12.4,6.3c-3.4,0-6.1,2.7-6.1,6.1V52c0,3.4,2.7,6.1,6.1,6.1h263.7c3.4,0,6.1-2.7,6.1-6.1V12.4
			c0-3.4-2.7-6.1-6.1-6.1H12.4z"/>
	</g>
</g>
</svg>
