<?xml version="1.0" encoding="utf-8"?>
<!-- Generator: Adobe Illustrator 26.3.1, SVG Export Plug-In . SVG Version: 6.00 Build 0)  -->
<svg version="1.1" id="Layer_1" xmlns="http://www.w3.org/2000/svg" xmlns:xlink="http://www.w3.org/1999/xlink" x="0px" y="0px"
	 viewBox="0 0 640 640" style="enable-background:new 0 0 640 640;" xml:space="preserve">
<style type="text/css">
	.st0{fill:#FFFFFF;}
</style>
<path class="st0" d="M532.2,126.9c-0.2-0.3-0.5-0.6-0.8-0.7c-39.5-18.1-81.3-31.1-124.1-38.5c-0.8-0.2-1.6,0.2-2,1
	c-5.7,10.3-10.9,20.9-15.5,31.8c-46.2-7.1-93.2-7.1-139.4,0c-4.6-10.9-9.9-21.5-15.7-31.8c-0.4-0.7-1.2-1.1-2-1
	c-42.8,7.4-84.6,20.3-124.1,38.5c-0.3,0.1-0.6,0.4-0.8,0.7C28.6,245,6.9,360.1,17.6,473.8c0.1,0.6,0.4,1.1,0.8,1.5
	c46.1,34.1,97.6,60.1,152.3,77c0.8,0.2,1.7,0,2.2-0.7c11.8-16,22.2-32.9,31.2-50.7c0.5-1,0.1-2.2-0.9-2.5c-0.1,0-0.1-0.1-0.2-0.1
	c-16.5-6.3-32.4-13.8-47.6-22.7c-0.9-0.6-1.3-1.8-0.7-2.6c0.1-0.2,0.3-0.4,0.5-0.6c3.2-2.4,6.4-4.9,9.4-7.4c0.6-0.5,1.3-0.6,2-0.3
	c99.8,45.6,207.9,45.6,306.5,0c0.7-0.3,1.5-0.2,2,0.2c3,2.5,6.3,5,9.5,7.5c0.9,0.7,1.1,1.9,0.4,2.7c-0.2,0.2-0.4,0.4-0.6,0.5
	c-15.2,8.9-31.1,16.5-47.6,22.7c-1,0.4-1.5,1.5-1.1,2.5c0,0.1,0.1,0.1,0.1,0.2c9.1,17.6,19.5,34.5,31.1,50.6c0.5,0.7,1.4,1,2.2,0.7
	c54.8-16.8,106.5-42.8,152.6-77c0.5-0.3,0.8-0.9,0.8-1.4C635,342.4,601,228.1,532.2,126.9z M218.9,404.6c-30,0-54.8-27.6-54.8-61.5
	s24.3-61.5,54.8-61.5c30.8,0,55.3,27.8,54.8,61.5C273.7,377.1,249.4,404.6,218.9,404.6z M421.5,404.6c-30,0-54.8-27.6-54.8-61.5
	s24.3-61.5,54.8-61.5c30.8,0,55.3,27.8,54.8,61.5C476.3,377.1,452.3,404.6,421.5,404.6z"/>
</svg>
