<?xml version="1.0" encoding="utf-8"?>
<svg xmlns="http://www.w3.org/2000/svg" xmlns:xlink="http://www.w3.org/1999/xlink" viewBox="0 0 512 512" fill="#ffffff" preserveAspectRatio="xMidYMid meet" class="r-eu3ka r-1aockid" style="vertical-align: middle;">

<style type="text/css">
	.st0{fill:#FFFFFF;}
</style>


<path class="st0" fill-rule="evenodd" clip-rule="evenodd" d="M230.434 379.554c8.259 0 14.978 6.719 14.978 14.974 0 8.256-6.719 14.974-14.978 14.974-8.255 0-14.974-6.718-14.974-14.974 0-8.255 6.719-14.974 14.974-14.974zm235.189-92.758c-8.259 0-14.978-6.719-14.978-14.974 0-8.259 6.719-14.978 14.978-14.978 8.255 0 14.974 6.719 14.974 14.978 0 8.255-6.719 14.974-14.974 14.974zm0-61.351c-25.571 0-46.377 20.805-46.377 46.377 0 4.979.827 9.938 2.46 14.757L268.502 368.13c-8.704-12.543-22.812-19.979-38.068-19.979-17.676 0-33.791 10.113-41.586 25.924L51.211 301.514c-14.54-7.646-25.425-31.595-24.27-53.392.598-11.371 4.53-20.196 10.511-23.604 3.8-2.157 8.37-1.968 13.214.57l.92.485c36.464 19.212 155.822 82.079 160.844 84.413 7.757 3.586 12.069 5.041 25.279-1.222l246.723-128.317c3.615-1.365 7.832-4.83 7.832-10.091 0-7.3-7.546-10.177-7.568-10.177-14.026-6.729-35.601-16.827-56.639-26.676-44.965-21.055-95.933-44.919-118.318-56.639-19.323-10.116-34.877-1.59-37.65.135l-5.39 2.667C165.965 129.482 31.154 196.248 23.479 200.917 9.735 209.28 1.224 225.94.122 246.625c-1.722 32.789 15.007 66.969 38.916 79.512l145.536 75.057c3.279 22.709 22.827 39.712 45.86 39.712 25.337 0 45.992-20.425 46.374-45.672l160.292-86.87a46.41 46.41 0 0028.523 9.835c25.571 0 46.377-20.806 46.377-46.377 0-25.572-20.806-46.377-46.377-46.377z" fill="currentColor"></path></svg>