<?xml version="1.0" encoding="utf-8"?>
<!-- Generator: Adobe Illustrator 27.0.0, SVG Export Plug-In . SVG Version: 6.00 Build 0)  -->
<svg version="1.1" id="Layer_1" xmlns="http://www.w3.org/2000/svg" xmlns:xlink="http://www.w3.org/1999/xlink" x="0px" y="0px"
	 viewBox="0 0 32 32" style="enable-background:new 0 0 32 32;" xml:space="preserve">
<style type="text/css">
	.st0{fill:#FFFFFF;}
</style>
<g>
	<path class="st0" d="M16,8.6c-4,0-7.3,3.3-7.3,7.3s3.3,7.3,7.3,7.3s7.3-3.3,7.3-7.3S20,8.6,16,8.6z M16,20.6
		c-2.6,0-4.7-2.1-4.7-4.7s2.1-4.7,4.7-4.7s4.7,2.1,4.7,4.7S18.6,20.6,16,20.6z"/>
	<circle class="st0" cx="23.6" cy="8.5" r="1.7"/>
	<path class="st0" d="M27.9,4.2c-1.5-1.5-3.6-2.3-6-2.3H10.1c-5,0-8.3,3.3-8.3,8.3v11.7c0,2.5,0.8,4.6,2.4,6.1
		c1.5,1.5,3.6,2.2,5.9,2.2h11.6c2.5,0,4.5-0.8,6-2.2c1.5-1.5,2.3-3.6,2.3-6.1V10.1C30.2,7.7,29.4,5.7,27.9,4.2z M27.6,21.9
		c0,1.8-0.6,3.2-1.7,4.2c-1,1-2.5,1.5-4.2,1.5H10.2C8.5,27.5,7,27,6,26c-1-1-1.5-2.5-1.5-4.2V10.1C4.5,8.4,5,7,6,6
		c1-1,2.5-1.5,4.2-1.5h11.8c1.7,0,3.1,0.5,4.2,1.5c1,1,1.5,2.5,1.5,4.1V21.9L27.6,21.9z"/>
</g>
</svg>
