<?xml version="1.0" encoding="utf-8"?>
<!-- Generator: Adobe Illustrator 25.4.1, SVG Export Plug-In . SVG Version: 6.00 Build 0)  -->
<svg version="1.1" id="Layer_1" xmlns="http://www.w3.org/2000/svg" xmlns:xlink="http://www.w3.org/1999/xlink" x="0px" y="0px"
	 viewBox="0 0 32 32" style="enable-background:new 0 0 32 32;" xml:space="preserve">
<style type="text/css">
	.st0{fill:#FFFFFF;}
</style>
<path class="st0" d="M31.1,6.6c-1.1,0.5-2.3,0.8-3.6,1c1.3-0.8,2.3-2,2.7-3.4c-1.2,0.7-2.5,1.2-3.9,1.5c-1.1-1.2-2.7-2-4.5-2
	c-3.4,0-6.2,2.8-6.2,6.2c0,0.5,0.1,1,0.2,1.4C10.6,11.1,6,8.6,3,4.9C2.5,5.8,2.1,6.8,2.1,8c0,2.2,1.1,4,2.8,5.2c-1,0-2-0.3-2.8-0.8
	c0,0,0,0.1,0,0.1c0,3,2.1,5.5,5,6.1c-0.5,0.1-1.1,0.2-1.6,0.2c-0.4,0-0.8,0-1.2-0.1c0.8,2.5,3.1,4.3,5.8,4.3
	c-2.1,1.7-4.8,2.7-7.7,2.7c-0.5,0-1,0-1.5-0.1c2.7,1.8,6,2.8,9.5,2.8c11.4,0,17.6-9.4,17.6-17.6c0-0.3,0-0.5,0-0.8
	C29.2,9,30.3,7.9,31.1,6.6z"/>
</svg>
